<mxfile host="app.diagrams.net" modified="2023-06-16T09:31:55.359Z" agent="Mozilla/5.0 (Windows NT 10.0; Win64; x64) AppleWebKit/537.36 (KHTML, like Gecko) Chrome/116.0.0.0 Safari/537.36 Edg/116.0.0.0" etag="Q6qjAVcfBgMzKcwbZXoB" version="21.3.6" type="device">
  <diagram name="Page-1" id="dkRdcyzWB-hq2_BkCbYh">
    <mxGraphModel dx="703" dy="416" grid="1" gridSize="10" guides="1" tooltips="1" connect="1" arrows="1" fold="1" page="1" pageScale="3" pageWidth="1169" pageHeight="827" math="0" shadow="0">
      <root>
        <mxCell id="0" />
        <mxCell id="1" parent="0" />
        <mxCell id="Cf3jVZnJyaWvzG3tm_rI-6" value="Instruction memory" style="rounded=0;whiteSpace=wrap;html=1;" vertex="1" parent="1">
          <mxGeometry x="200" y="120" width="160" height="160" as="geometry" />
        </mxCell>
        <mxCell id="Cf3jVZnJyaWvzG3tm_rI-7" value="" style="rounded=0;whiteSpace=wrap;html=1;" vertex="1" parent="1">
          <mxGeometry x="80" y="320" width="40" height="280" as="geometry" />
        </mxCell>
        <mxCell id="Cf3jVZnJyaWvzG3tm_rI-8" value="" style="rounded=0;whiteSpace=wrap;html=1;" vertex="1" parent="1">
          <mxGeometry x="440" y="320" width="40" height="280" as="geometry" />
        </mxCell>
        <mxCell id="Cf3jVZnJyaWvzG3tm_rI-9" value="" style="rounded=0;whiteSpace=wrap;html=1;" vertex="1" parent="1">
          <mxGeometry x="800" y="320" width="40" height="280" as="geometry" />
        </mxCell>
        <mxCell id="Cf3jVZnJyaWvzG3tm_rI-10" value="" style="rounded=0;whiteSpace=wrap;html=1;" vertex="1" parent="1">
          <mxGeometry x="1160" y="320" width="40" height="280" as="geometry" />
        </mxCell>
        <mxCell id="Cf3jVZnJyaWvzG3tm_rI-11" value="" style="rounded=0;whiteSpace=wrap;html=1;" vertex="1" parent="1">
          <mxGeometry x="1520" y="320" width="40" height="280" as="geometry" />
        </mxCell>
        <mxCell id="Cf3jVZnJyaWvzG3tm_rI-12" value="Data memory" style="rounded=0;whiteSpace=wrap;html=1;" vertex="1" parent="1">
          <mxGeometry x="1280" y="120" width="160" height="160" as="geometry" />
        </mxCell>
        <mxCell id="Cf3jVZnJyaWvzG3tm_rI-14" value="" style="endArrow=none;html=1;rounded=0;entryX=0.25;entryY=1;entryDx=0;entryDy=0;" edge="1" parent="1" target="Cf3jVZnJyaWvzG3tm_rI-6">
          <mxGeometry width="50" height="50" relative="1" as="geometry">
            <mxPoint x="120" y="340" as="sourcePoint" />
            <mxPoint x="170" y="290" as="targetPoint" />
            <Array as="points">
              <mxPoint x="240" y="340" />
            </Array>
          </mxGeometry>
        </mxCell>
        <mxCell id="Cf3jVZnJyaWvzG3tm_rI-16" value="" style="endArrow=none;html=1;rounded=0;" edge="1" parent="1">
          <mxGeometry width="50" height="50" relative="1" as="geometry">
            <mxPoint x="440" y="580" as="sourcePoint" />
            <mxPoint x="320" y="280" as="targetPoint" />
            <Array as="points">
              <mxPoint x="320" y="580" />
            </Array>
          </mxGeometry>
        </mxCell>
        <mxCell id="Cf3jVZnJyaWvzG3tm_rI-18" value="" style="endArrow=none;html=1;rounded=0;" edge="1" parent="1">
          <mxGeometry width="50" height="50" relative="1" as="geometry">
            <mxPoint x="240" y="340" as="sourcePoint" />
            <mxPoint x="440" y="340" as="targetPoint" />
          </mxGeometry>
        </mxCell>
        <mxCell id="Cf3jVZnJyaWvzG3tm_rI-19" value="&lt;font style=&quot;font-size: 8px;&quot;&gt;PC&lt;/font&gt;" style="text;html=1;align=center;verticalAlign=middle;resizable=0;points=[];autosize=1;strokeColor=none;fillColor=none;" vertex="1" parent="1">
          <mxGeometry x="165" y="318" width="30" height="30" as="geometry" />
        </mxCell>
        <mxCell id="Cf3jVZnJyaWvzG3tm_rI-21" value="&lt;font style=&quot;font-size: 8px;&quot;&gt;PC&lt;/font&gt;" style="text;html=1;align=center;verticalAlign=middle;resizable=0;points=[];autosize=1;strokeColor=none;fillColor=none;" vertex="1" parent="1">
          <mxGeometry x="365" y="318" width="30" height="30" as="geometry" />
        </mxCell>
        <mxCell id="Cf3jVZnJyaWvzG3tm_rI-23" value="&lt;font style=&quot;font-size: 8px;&quot;&gt;Instruction&lt;/font&gt;" style="text;html=1;align=center;verticalAlign=middle;resizable=0;points=[];autosize=1;strokeColor=none;fillColor=none;" vertex="1" parent="1">
          <mxGeometry x="350" y="558" width="60" height="30" as="geometry" />
        </mxCell>
        <mxCell id="Cf3jVZnJyaWvzG3tm_rI-24" value="IF" style="text;html=1;align=center;verticalAlign=middle;resizable=0;points=[];autosize=1;strokeColor=none;fillColor=none;" vertex="1" parent="1">
          <mxGeometry x="85" y="290" width="30" height="30" as="geometry" />
        </mxCell>
        <mxCell id="Cf3jVZnJyaWvzG3tm_rI-25" value="DE" style="text;html=1;align=center;verticalAlign=middle;resizable=0;points=[];autosize=1;strokeColor=none;fillColor=none;" vertex="1" parent="1">
          <mxGeometry x="440" y="290" width="40" height="30" as="geometry" />
        </mxCell>
        <mxCell id="Cf3jVZnJyaWvzG3tm_rI-26" value="EX" style="text;html=1;align=center;verticalAlign=middle;resizable=0;points=[];autosize=1;strokeColor=none;fillColor=none;" vertex="1" parent="1">
          <mxGeometry x="800" y="290" width="40" height="30" as="geometry" />
        </mxCell>
        <mxCell id="Cf3jVZnJyaWvzG3tm_rI-27" value="MA" style="text;html=1;align=center;verticalAlign=middle;resizable=0;points=[];autosize=1;strokeColor=none;fillColor=none;" vertex="1" parent="1">
          <mxGeometry x="1160" y="290" width="40" height="30" as="geometry" />
        </mxCell>
        <mxCell id="Cf3jVZnJyaWvzG3tm_rI-28" value="WB" style="text;html=1;align=center;verticalAlign=middle;resizable=0;points=[];autosize=1;strokeColor=none;fillColor=none;" vertex="1" parent="1">
          <mxGeometry x="1520" y="290" width="40" height="30" as="geometry" />
        </mxCell>
        <mxCell id="Cf3jVZnJyaWvzG3tm_rI-29" value="Register unit" style="rounded=0;whiteSpace=wrap;html=1;" vertex="1" parent="1">
          <mxGeometry x="560" y="360" width="120" height="200" as="geometry" />
        </mxCell>
        <mxCell id="Cf3jVZnJyaWvzG3tm_rI-30" value="" style="endArrow=none;html=1;rounded=0;" edge="1" parent="1">
          <mxGeometry width="50" height="50" relative="1" as="geometry">
            <mxPoint x="480" y="340" as="sourcePoint" />
            <mxPoint x="800" y="340" as="targetPoint" />
          </mxGeometry>
        </mxCell>
        <mxCell id="Cf3jVZnJyaWvzG3tm_rI-31" value="&lt;font style=&quot;font-size: 9px;&quot;&gt;PC&lt;/font&gt;" style="text;html=1;align=center;verticalAlign=middle;resizable=0;points=[];autosize=1;strokeColor=none;fillColor=none;" vertex="1" parent="1">
          <mxGeometry x="600" y="318" width="40" height="30" as="geometry" />
        </mxCell>
        <mxCell id="Cf3jVZnJyaWvzG3tm_rI-32" value="" style="endArrow=none;html=1;rounded=0;" edge="1" parent="1">
          <mxGeometry width="50" height="50" relative="1" as="geometry">
            <mxPoint x="480" y="580" as="sourcePoint" />
            <mxPoint x="800" y="580" as="targetPoint" />
          </mxGeometry>
        </mxCell>
        <mxCell id="Cf3jVZnJyaWvzG3tm_rI-33" value="&lt;font style=&quot;font-size: 9px;&quot;&gt;Instruction&lt;/font&gt;" style="text;html=1;align=center;verticalAlign=middle;resizable=0;points=[];autosize=1;strokeColor=none;fillColor=none;" vertex="1" parent="1">
          <mxGeometry x="585" y="558" width="70" height="30" as="geometry" />
        </mxCell>
        <mxCell id="Cf3jVZnJyaWvzG3tm_rI-34" value="" style="endArrow=none;html=1;rounded=0;" edge="1" parent="1">
          <mxGeometry width="50" height="50" relative="1" as="geometry">
            <mxPoint x="480" y="400" as="sourcePoint" />
            <mxPoint x="560" y="400" as="targetPoint" />
          </mxGeometry>
        </mxCell>
        <mxCell id="Cf3jVZnJyaWvzG3tm_rI-35" value="" style="endArrow=none;html=1;rounded=0;" edge="1" parent="1">
          <mxGeometry width="50" height="50" relative="1" as="geometry">
            <mxPoint x="480" y="520" as="sourcePoint" />
            <mxPoint x="560" y="520" as="targetPoint" />
          </mxGeometry>
        </mxCell>
        <mxCell id="Cf3jVZnJyaWvzG3tm_rI-36" value="&lt;font style=&quot;font-size: 8px;&quot;&gt;RS1&lt;/font&gt;" style="text;html=1;align=center;verticalAlign=middle;resizable=0;points=[];autosize=1;strokeColor=none;fillColor=none;" vertex="1" parent="1">
          <mxGeometry x="500" y="378" width="40" height="30" as="geometry" />
        </mxCell>
        <mxCell id="Cf3jVZnJyaWvzG3tm_rI-38" value="&lt;font style=&quot;&quot;&gt;&lt;font style=&quot;font-size: 8px;&quot;&gt;RS2&lt;/font&gt;&lt;br&gt;&lt;/font&gt;" style="text;html=1;align=center;verticalAlign=middle;resizable=0;points=[];autosize=1;strokeColor=none;fillColor=none;" vertex="1" parent="1">
          <mxGeometry x="500" y="498" width="40" height="30" as="geometry" />
        </mxCell>
        <mxCell id="Cf3jVZnJyaWvzG3tm_rI-39" value="" style="endArrow=none;html=1;rounded=0;" edge="1" parent="1">
          <mxGeometry width="50" height="50" relative="1" as="geometry">
            <mxPoint x="1560" y="520" as="sourcePoint" />
            <mxPoint x="580" y="560" as="targetPoint" />
            <Array as="points">
              <mxPoint x="1640" y="520" />
              <mxPoint x="1640" y="660" />
              <mxPoint x="1090" y="660" />
              <mxPoint x="580" y="660" />
            </Array>
          </mxGeometry>
        </mxCell>
        <mxCell id="Cf3jVZnJyaWvzG3tm_rI-43" value="" style="endArrow=none;html=1;rounded=0;fillColor=#E6E6E6;" edge="1" parent="1">
          <mxGeometry width="50" height="50" relative="1" as="geometry">
            <mxPoint x="970" y="460" as="sourcePoint" />
            <mxPoint x="970" y="460" as="targetPoint" />
            <Array as="points">
              <mxPoint x="970" y="470" />
              <mxPoint x="960" y="480" />
              <mxPoint x="960" y="520" />
              <mxPoint x="1000" y="490" />
              <mxPoint x="1000" y="430" />
              <mxPoint x="960" y="400" />
              <mxPoint x="960" y="440" />
              <mxPoint x="970" y="450" />
            </Array>
          </mxGeometry>
        </mxCell>
        <mxCell id="Cf3jVZnJyaWvzG3tm_rI-45" value="" style="endArrow=none;html=1;rounded=0;" edge="1" parent="1">
          <mxGeometry width="50" height="50" relative="1" as="geometry">
            <mxPoint x="840" y="420" as="sourcePoint" />
            <mxPoint x="960" y="420" as="targetPoint" />
          </mxGeometry>
        </mxCell>
        <mxCell id="Cf3jVZnJyaWvzG3tm_rI-46" value="" style="endArrow=none;html=1;rounded=0;" edge="1" parent="1">
          <mxGeometry width="50" height="50" relative="1" as="geometry">
            <mxPoint x="840" y="500" as="sourcePoint" />
            <mxPoint x="960" y="500" as="targetPoint" />
          </mxGeometry>
        </mxCell>
        <mxCell id="Cf3jVZnJyaWvzG3tm_rI-47" value="" style="endArrow=none;html=1;rounded=0;" edge="1" parent="1">
          <mxGeometry width="50" height="50" relative="1" as="geometry">
            <mxPoint x="660" y="560" as="sourcePoint" />
            <mxPoint x="1560" y="560" as="targetPoint" />
            <Array as="points">
              <mxPoint x="660" y="620" />
              <mxPoint x="1600" y="620" />
              <mxPoint x="1600" y="560" />
            </Array>
          </mxGeometry>
        </mxCell>
        <mxCell id="Cf3jVZnJyaWvzG3tm_rI-48" value="" style="endArrow=none;html=1;rounded=0;" edge="1" parent="1">
          <mxGeometry width="50" height="50" relative="1" as="geometry">
            <mxPoint x="1000" y="460" as="sourcePoint" />
            <mxPoint x="1160" y="460" as="targetPoint" />
          </mxGeometry>
        </mxCell>
        <mxCell id="Cf3jVZnJyaWvzG3tm_rI-49" value="&lt;font style=&quot;font-size: 8px;&quot;&gt;Data A&lt;/font&gt;" style="text;html=1;align=center;verticalAlign=middle;resizable=0;points=[];autosize=1;strokeColor=none;fillColor=none;" vertex="1" parent="1">
          <mxGeometry x="875" y="398" width="50" height="30" as="geometry" />
        </mxCell>
        <mxCell id="Cf3jVZnJyaWvzG3tm_rI-51" value="&lt;font style=&quot;font-size: 8px;&quot;&gt;Data B&lt;/font&gt;" style="text;html=1;align=center;verticalAlign=middle;resizable=0;points=[];autosize=1;strokeColor=none;fillColor=none;" vertex="1" parent="1">
          <mxGeometry x="875" y="478" width="50" height="30" as="geometry" />
        </mxCell>
        <mxCell id="Cf3jVZnJyaWvzG3tm_rI-52" value="" style="endArrow=none;html=1;rounded=0;" edge="1" parent="1">
          <mxGeometry width="50" height="50" relative="1" as="geometry">
            <mxPoint x="840" y="530" as="sourcePoint" />
            <mxPoint x="1160" y="530" as="targetPoint" />
          </mxGeometry>
        </mxCell>
        <mxCell id="Cf3jVZnJyaWvzG3tm_rI-53" value="&lt;font style=&quot;font-size: 8px;&quot;&gt;Store data&lt;/font&gt;" style="text;html=1;align=center;verticalAlign=middle;resizable=0;points=[];autosize=1;strokeColor=none;fillColor=none;" vertex="1" parent="1">
          <mxGeometry x="970" y="508" width="60" height="30" as="geometry" />
        </mxCell>
        <mxCell id="Cf3jVZnJyaWvzG3tm_rI-54" value="" style="endArrow=none;html=1;rounded=0;" edge="1" parent="1">
          <mxGeometry width="50" height="50" relative="1" as="geometry">
            <mxPoint x="840" y="580" as="sourcePoint" />
            <mxPoint x="1160" y="580" as="targetPoint" />
          </mxGeometry>
        </mxCell>
        <mxCell id="Cf3jVZnJyaWvzG3tm_rI-55" value="&lt;font style=&quot;font-size: 8px;&quot;&gt;Instruction&lt;/font&gt;" style="text;html=1;align=center;verticalAlign=middle;resizable=0;points=[];autosize=1;strokeColor=none;fillColor=none;" vertex="1" parent="1">
          <mxGeometry x="970" y="558" width="60" height="30" as="geometry" />
        </mxCell>
        <mxCell id="Cf3jVZnJyaWvzG3tm_rI-56" value="" style="endArrow=none;html=1;rounded=0;" edge="1" parent="1">
          <mxGeometry width="50" height="50" relative="1" as="geometry">
            <mxPoint x="840" y="340" as="sourcePoint" />
            <mxPoint x="1160" y="340" as="targetPoint" />
          </mxGeometry>
        </mxCell>
        <mxCell id="Cf3jVZnJyaWvzG3tm_rI-57" value="ALU" style="text;html=1;align=center;verticalAlign=middle;resizable=0;points=[];autosize=1;strokeColor=none;fillColor=none;" vertex="1" parent="1">
          <mxGeometry x="960" y="445" width="50" height="30" as="geometry" />
        </mxCell>
        <mxCell id="Cf3jVZnJyaWvzG3tm_rI-59" value="&lt;font style=&quot;font-size: 8px;&quot;&gt;PC&lt;/font&gt;" style="text;html=1;align=center;verticalAlign=middle;resizable=0;points=[];autosize=1;strokeColor=none;fillColor=none;" vertex="1" parent="1">
          <mxGeometry x="985" y="318" width="30" height="30" as="geometry" />
        </mxCell>
        <mxCell id="Cf3jVZnJyaWvzG3tm_rI-60" value="Branch unit" style="rounded=1;whiteSpace=wrap;html=1;" vertex="1" parent="1">
          <mxGeometry x="1020" y="150" width="120" height="60" as="geometry" />
        </mxCell>
        <mxCell id="Cf3jVZnJyaWvzG3tm_rI-61" value="" style="endArrow=none;html=1;rounded=0;" edge="1" parent="1">
          <mxGeometry width="50" height="50" relative="1" as="geometry">
            <mxPoint x="840" y="390" as="sourcePoint" />
            <mxPoint x="1060" y="210" as="targetPoint" />
            <Array as="points">
              <mxPoint x="1060" y="390" />
            </Array>
          </mxGeometry>
        </mxCell>
        <mxCell id="Cf3jVZnJyaWvzG3tm_rI-62" value="&lt;font style=&quot;font-size: 8px;&quot;&gt;ALU result&lt;/font&gt;" style="text;html=1;align=center;verticalAlign=middle;resizable=0;points=[];autosize=1;strokeColor=none;fillColor=none;" vertex="1" parent="1">
          <mxGeometry x="1005" y="438" width="60" height="30" as="geometry" />
        </mxCell>
        <mxCell id="Cf3jVZnJyaWvzG3tm_rI-64" value="" style="endArrow=none;html=1;rounded=0;" edge="1" parent="1">
          <mxGeometry width="50" height="50" relative="1" as="geometry">
            <mxPoint x="1100" y="460" as="sourcePoint" />
            <mxPoint x="1100" y="210" as="targetPoint" />
          </mxGeometry>
        </mxCell>
        <mxCell id="Cf3jVZnJyaWvzG3tm_rI-65" value="" style="endArrow=none;html=1;rounded=0;" edge="1" parent="1">
          <mxGeometry width="50" height="50" relative="1" as="geometry">
            <mxPoint x="80" y="340" as="sourcePoint" />
            <mxPoint x="1060" y="150" as="targetPoint" />
            <Array as="points">
              <mxPoint x="60" y="340" />
              <mxPoint x="60" y="100" />
              <mxPoint x="560" y="100" />
              <mxPoint x="1060" y="100" />
            </Array>
          </mxGeometry>
        </mxCell>
        <mxCell id="Cf3jVZnJyaWvzG3tm_rI-66" value="" style="endArrow=none;html=1;rounded=0;" edge="1" parent="1">
          <mxGeometry width="50" height="50" relative="1" as="geometry">
            <mxPoint x="80" y="360" as="sourcePoint" />
            <mxPoint x="1100" y="150" as="targetPoint" />
            <Array as="points">
              <mxPoint x="40" y="360" />
              <mxPoint x="40" y="60" />
              <mxPoint x="1100" y="60" />
            </Array>
          </mxGeometry>
        </mxCell>
        <mxCell id="Cf3jVZnJyaWvzG3tm_rI-67" value="&lt;font style=&quot;font-size: 8px;&quot;&gt;Branch taken&lt;/font&gt;" style="text;html=1;align=center;verticalAlign=middle;resizable=0;points=[];autosize=1;strokeColor=none;fillColor=none;" vertex="1" parent="1">
          <mxGeometry x="590" y="38" width="70" height="30" as="geometry" />
        </mxCell>
        <mxCell id="Cf3jVZnJyaWvzG3tm_rI-69" value="&lt;font style=&quot;font-size: 8px;&quot;&gt;Branch address&lt;/font&gt;" style="text;html=1;align=center;verticalAlign=middle;resizable=0;points=[];autosize=1;strokeColor=none;fillColor=none;" vertex="1" parent="1">
          <mxGeometry x="585" y="78" width="80" height="30" as="geometry" />
        </mxCell>
        <mxCell id="Cf3jVZnJyaWvzG3tm_rI-70" value="&lt;font style=&quot;font-size: 8px;&quot;&gt;Branch address&lt;/font&gt;" style="text;html=1;align=center;verticalAlign=middle;resizable=0;points=[];autosize=1;strokeColor=none;fillColor=none;" vertex="1" parent="1">
          <mxGeometry x="862" y="368" width="80" height="30" as="geometry" />
        </mxCell>
        <mxCell id="Cf3jVZnJyaWvzG3tm_rI-71" value="" style="endArrow=none;html=1;rounded=0;" edge="1" parent="1">
          <mxGeometry width="50" height="50" relative="1" as="geometry">
            <mxPoint x="1200" y="580" as="sourcePoint" />
            <mxPoint x="1520" y="580" as="targetPoint" />
          </mxGeometry>
        </mxCell>
        <mxCell id="Cf3jVZnJyaWvzG3tm_rI-72" value="&lt;font style=&quot;font-size: 8px;&quot;&gt;Instruction&lt;/font&gt;" style="text;html=1;align=center;verticalAlign=middle;resizable=0;points=[];autosize=1;strokeColor=none;fillColor=none;" vertex="1" parent="1">
          <mxGeometry x="1330" y="558" width="60" height="30" as="geometry" />
        </mxCell>
        <mxCell id="Cf3jVZnJyaWvzG3tm_rI-73" value="MUX2/1" style="verticalLabelPosition=middle;verticalAlign=middle;html=1;shape=trapezoid;perimeter=trapezoidPerimeter;whiteSpace=wrap;size=0.23;arcSize=10;flipV=1;labelPosition=center;align=center;rotation=-90;fontSize=8;" vertex="1" parent="1">
          <mxGeometry x="724" y="389" width="50" height="22" as="geometry" />
        </mxCell>
        <mxCell id="Cf3jVZnJyaWvzG3tm_rI-74" value="" style="endArrow=none;html=1;rounded=0;" edge="1" parent="1">
          <mxGeometry width="50" height="50" relative="1" as="geometry">
            <mxPoint x="680" y="390" as="sourcePoint" />
            <mxPoint x="738" y="390" as="targetPoint" />
          </mxGeometry>
        </mxCell>
        <mxCell id="Cf3jVZnJyaWvzG3tm_rI-75" value="" style="endArrow=none;html=1;rounded=0;" edge="1" parent="1">
          <mxGeometry width="50" height="50" relative="1" as="geometry">
            <mxPoint x="760" y="400" as="sourcePoint" />
            <mxPoint x="800" y="400" as="targetPoint" />
          </mxGeometry>
        </mxCell>
        <mxCell id="Cf3jVZnJyaWvzG3tm_rI-76" value="MUX2/1" style="verticalLabelPosition=middle;verticalAlign=middle;html=1;shape=trapezoid;perimeter=trapezoidPerimeter;whiteSpace=wrap;size=0.23;arcSize=10;flipV=1;labelPosition=center;align=center;rotation=-90;fontSize=8;" vertex="1" parent="1">
          <mxGeometry x="724" y="509" width="50" height="22" as="geometry" />
        </mxCell>
        <mxCell id="Cf3jVZnJyaWvzG3tm_rI-77" value="" style="endArrow=none;html=1;rounded=0;" edge="1" parent="1">
          <mxGeometry width="50" height="50" relative="1" as="geometry">
            <mxPoint x="760" y="519.89" as="sourcePoint" />
            <mxPoint x="800" y="519.89" as="targetPoint" />
          </mxGeometry>
        </mxCell>
        <mxCell id="Cf3jVZnJyaWvzG3tm_rI-78" value="" style="endArrow=none;html=1;rounded=0;" edge="1" parent="1">
          <mxGeometry width="50" height="50" relative="1" as="geometry">
            <mxPoint x="680" y="509" as="sourcePoint" />
            <mxPoint x="738" y="509" as="targetPoint" />
          </mxGeometry>
        </mxCell>
        <mxCell id="Cf3jVZnJyaWvzG3tm_rI-79" value="" style="endArrow=none;html=1;rounded=0;" edge="1" parent="1">
          <mxGeometry width="50" height="50" relative="1" as="geometry">
            <mxPoint x="750" y="430" as="sourcePoint" />
            <mxPoint x="750" y="419" as="targetPoint" />
          </mxGeometry>
        </mxCell>
        <mxCell id="Cf3jVZnJyaWvzG3tm_rI-80" value="" style="endArrow=none;html=1;rounded=0;" edge="1" parent="1">
          <mxGeometry width="50" height="50" relative="1" as="geometry">
            <mxPoint x="750" y="550" as="sourcePoint" />
            <mxPoint x="750" y="539" as="targetPoint" />
          </mxGeometry>
        </mxCell>
        <mxCell id="Cf3jVZnJyaWvzG3tm_rI-81" value="" style="endArrow=none;html=1;rounded=0;" edge="1" parent="1">
          <mxGeometry width="50" height="50" relative="1" as="geometry">
            <mxPoint x="700" y="720" as="sourcePoint" />
            <mxPoint x="738" y="410" as="targetPoint" />
            <Array as="points">
              <mxPoint x="700" y="410" />
            </Array>
          </mxGeometry>
        </mxCell>
        <mxCell id="Cf3jVZnJyaWvzG3tm_rI-82" value="" style="endArrow=none;html=1;rounded=0;" edge="1" parent="1">
          <mxGeometry width="50" height="50" relative="1" as="geometry">
            <mxPoint x="720" y="720" as="sourcePoint" />
            <mxPoint x="738" y="531" as="targetPoint" />
            <Array as="points">
              <mxPoint x="720" y="531" />
            </Array>
          </mxGeometry>
        </mxCell>
        <mxCell id="Cf3jVZnJyaWvzG3tm_rI-84" value="&lt;font style=&quot;font-size: 8px;&quot;&gt;Data A&lt;/font&gt;" style="text;html=1;align=center;verticalAlign=middle;resizable=0;points=[];autosize=1;strokeColor=none;fillColor=none;" vertex="1" parent="1">
          <mxGeometry x="754" y="378" width="50" height="30" as="geometry" />
        </mxCell>
        <mxCell id="Cf3jVZnJyaWvzG3tm_rI-85" value="&lt;font style=&quot;font-size: 8px;&quot;&gt;Data B&lt;/font&gt;" style="text;html=1;align=center;verticalAlign=middle;resizable=0;points=[];autosize=1;strokeColor=none;fillColor=none;" vertex="1" parent="1">
          <mxGeometry x="754" y="498" width="50" height="30" as="geometry" />
        </mxCell>
        <mxCell id="Cf3jVZnJyaWvzG3tm_rI-86" value="&lt;font style=&quot;font-size: 8px;&quot;&gt;RS1&lt;/font&gt;" style="text;html=1;align=center;verticalAlign=middle;resizable=0;points=[];autosize=1;strokeColor=none;fillColor=none;" vertex="1" parent="1">
          <mxGeometry x="692" y="368" width="40" height="30" as="geometry" />
        </mxCell>
        <mxCell id="Cf3jVZnJyaWvzG3tm_rI-87" value="&lt;font style=&quot;font-size: 8px;&quot;&gt;RS2&lt;/font&gt;" style="text;html=1;align=center;verticalAlign=middle;resizable=0;points=[];autosize=1;strokeColor=none;fillColor=none;" vertex="1" parent="1">
          <mxGeometry x="700" y="488" width="40" height="30" as="geometry" />
        </mxCell>
        <mxCell id="Cf3jVZnJyaWvzG3tm_rI-88" value="Bypass unit" style="rounded=1;whiteSpace=wrap;html=1;" vertex="1" parent="1">
          <mxGeometry x="650" y="720" width="120" height="140" as="geometry" />
        </mxCell>
        <mxCell id="Cf3jVZnJyaWvzG3tm_rI-89" value="" style="endArrow=none;html=1;rounded=0;" edge="1" parent="1">
          <mxGeometry width="50" height="50" relative="1" as="geometry">
            <mxPoint x="1200" y="340" as="sourcePoint" />
            <mxPoint x="1520" y="340" as="targetPoint" />
          </mxGeometry>
        </mxCell>
        <mxCell id="Cf3jVZnJyaWvzG3tm_rI-90" value="&lt;font style=&quot;font-size: 8px;&quot;&gt;PC&lt;/font&gt;" style="text;html=1;align=center;verticalAlign=middle;resizable=0;points=[];autosize=1;strokeColor=none;fillColor=none;" vertex="1" parent="1">
          <mxGeometry x="1225" y="318" width="30" height="30" as="geometry" />
        </mxCell>
        <mxCell id="Cf3jVZnJyaWvzG3tm_rI-91" value="" style="endArrow=none;html=1;rounded=0;" edge="1" parent="1">
          <mxGeometry width="50" height="50" relative="1" as="geometry">
            <mxPoint x="1200" y="530" as="sourcePoint" />
            <mxPoint x="1300" y="280" as="targetPoint" />
            <Array as="points">
              <mxPoint x="1300" y="530" />
            </Array>
          </mxGeometry>
        </mxCell>
        <mxCell id="Cf3jVZnJyaWvzG3tm_rI-92" value="&lt;font style=&quot;font-size: 8px;&quot;&gt;Store data&lt;/font&gt;" style="text;html=1;align=center;verticalAlign=middle;resizable=0;points=[];autosize=1;strokeColor=none;fillColor=none;" vertex="1" parent="1">
          <mxGeometry x="1220" y="508" width="60" height="30" as="geometry" />
        </mxCell>
        <mxCell id="Cf3jVZnJyaWvzG3tm_rI-93" value="" style="endArrow=none;html=1;rounded=0;" edge="1" parent="1">
          <mxGeometry width="50" height="50" relative="1" as="geometry">
            <mxPoint x="1440" y="450" as="sourcePoint" />
            <mxPoint x="1420" y="280" as="targetPoint" />
            <Array as="points">
              <mxPoint x="1420" y="450" />
            </Array>
          </mxGeometry>
        </mxCell>
        <mxCell id="Cf3jVZnJyaWvzG3tm_rI-94" value="&lt;font style=&quot;font-size: 8px;&quot;&gt;Store data&lt;/font&gt;" style="text;html=1;align=center;verticalAlign=middle;resizable=0;points=[];autosize=1;strokeColor=none;fillColor=none;" vertex="1" parent="1">
          <mxGeometry x="1410" y="389" width="60" height="30" as="geometry" />
        </mxCell>
        <mxCell id="Cf3jVZnJyaWvzG3tm_rI-95" value="MUX2/1" style="verticalLabelPosition=middle;verticalAlign=middle;html=1;shape=trapezoid;perimeter=trapezoidPerimeter;whiteSpace=wrap;size=0.23;arcSize=10;flipV=1;labelPosition=center;align=center;rotation=-90;fontSize=8;" vertex="1" parent="1">
          <mxGeometry x="1426" y="448" width="50" height="22" as="geometry" />
        </mxCell>
        <mxCell id="Cf3jVZnJyaWvzG3tm_rI-96" value="" style="endArrow=none;html=1;rounded=0;" edge="1" parent="1">
          <mxGeometry width="50" height="50" relative="1" as="geometry">
            <mxPoint x="1200" y="460" as="sourcePoint" />
            <mxPoint x="1440" y="470" as="targetPoint" />
            <Array as="points">
              <mxPoint x="1360" y="460" />
              <mxPoint x="1360" y="470" />
            </Array>
          </mxGeometry>
        </mxCell>
        <mxCell id="Cf3jVZnJyaWvzG3tm_rI-97" value="&lt;font style=&quot;font-size: 8px;&quot;&gt;ALU result&lt;/font&gt;" style="text;html=1;align=center;verticalAlign=middle;resizable=0;points=[];autosize=1;strokeColor=none;fillColor=none;" vertex="1" parent="1">
          <mxGeometry x="1371" y="448" width="60" height="30" as="geometry" />
        </mxCell>
        <mxCell id="Cf3jVZnJyaWvzG3tm_rI-98" value="" style="endArrow=none;html=1;rounded=0;" edge="1" parent="1">
          <mxGeometry width="50" height="50" relative="1" as="geometry">
            <mxPoint x="1360" y="460" as="sourcePoint" />
            <mxPoint x="1360" y="280" as="targetPoint" />
          </mxGeometry>
        </mxCell>
        <mxCell id="Cf3jVZnJyaWvzG3tm_rI-99" value="&lt;font style=&quot;font-size: 8px;&quot;&gt;PC&lt;/font&gt;" style="text;html=1;align=center;verticalAlign=middle;resizable=0;points=[];autosize=1;strokeColor=none;fillColor=none;" vertex="1" parent="1">
          <mxGeometry x="1464" y="318" width="30" height="30" as="geometry" />
        </mxCell>
        <mxCell id="Cf3jVZnJyaWvzG3tm_rI-101" value="" style="endArrow=none;html=1;rounded=0;" edge="1" parent="1">
          <mxGeometry width="50" height="50" relative="1" as="geometry">
            <mxPoint x="1462" y="460" as="sourcePoint" />
            <mxPoint x="1520" y="460" as="targetPoint" />
          </mxGeometry>
        </mxCell>
        <mxCell id="Cf3jVZnJyaWvzG3tm_rI-102" value="&lt;font style=&quot;font-size: 8px;&quot;&gt;ALU result&lt;/font&gt;" style="text;html=1;align=center;verticalAlign=middle;resizable=0;points=[];autosize=1;strokeColor=none;fillColor=none;" vertex="1" parent="1">
          <mxGeometry x="1210" y="438" width="60" height="30" as="geometry" />
        </mxCell>
        <mxCell id="Cf3jVZnJyaWvzG3tm_rI-103" value="" style="endArrow=none;html=1;rounded=0;" edge="1" parent="1">
          <mxGeometry width="50" height="50" relative="1" as="geometry">
            <mxPoint x="770" y="740" as="sourcePoint" />
            <mxPoint x="880" y="580" as="targetPoint" />
            <Array as="points">
              <mxPoint x="880" y="740" />
            </Array>
          </mxGeometry>
        </mxCell>
        <mxCell id="Cf3jVZnJyaWvzG3tm_rI-104" value="" style="endArrow=none;html=1;rounded=0;" edge="1" parent="1">
          <mxGeometry width="50" height="50" relative="1" as="geometry">
            <mxPoint x="770" y="759" as="sourcePoint" />
            <mxPoint x="1140" y="460" as="targetPoint" />
            <Array as="points">
              <mxPoint x="1140" y="759" />
            </Array>
          </mxGeometry>
        </mxCell>
        <mxCell id="Cf3jVZnJyaWvzG3tm_rI-105" value="" style="endArrow=none;html=1;rounded=0;" edge="1" parent="1">
          <mxGeometry width="50" height="50" relative="1" as="geometry">
            <mxPoint x="770" y="780" as="sourcePoint" />
            <mxPoint x="1240" y="580" as="targetPoint" />
            <Array as="points">
              <mxPoint x="1240" y="780" />
            </Array>
          </mxGeometry>
        </mxCell>
        <mxCell id="Cf3jVZnJyaWvzG3tm_rI-106" value="" style="endArrow=none;html=1;rounded=0;" edge="1" parent="1">
          <mxGeometry width="50" height="50" relative="1" as="geometry">
            <mxPoint x="770" y="800" as="sourcePoint" />
            <mxPoint x="1500" y="460" as="targetPoint" />
            <Array as="points">
              <mxPoint x="1500" y="800" />
            </Array>
          </mxGeometry>
        </mxCell>
        <mxCell id="Cf3jVZnJyaWvzG3tm_rI-107" value="&lt;font style=&quot;font-size: 8px;&quot;&gt;RD&lt;/font&gt;" style="text;html=1;align=center;verticalAlign=middle;resizable=0;points=[];autosize=1;strokeColor=none;fillColor=none;" vertex="1" parent="1">
          <mxGeometry x="980" y="598" width="40" height="30" as="geometry" />
        </mxCell>
        <mxCell id="Cf3jVZnJyaWvzG3tm_rI-108" value="&lt;font style=&quot;font-size: 8px;&quot;&gt;Register store data&lt;/font&gt;" style="text;html=1;align=center;verticalAlign=middle;resizable=0;points=[];autosize=1;strokeColor=none;fillColor=none;" vertex="1" parent="1">
          <mxGeometry x="955" y="638" width="90" height="30" as="geometry" />
        </mxCell>
        <mxCell id="Cf3jVZnJyaWvzG3tm_rI-109" value="" style="endArrow=none;html=1;rounded=0;" edge="1" parent="1">
          <mxGeometry width="50" height="50" relative="1" as="geometry">
            <mxPoint x="770" y="820" as="sourcePoint" />
            <mxPoint x="1540" y="600" as="targetPoint" />
            <Array as="points">
              <mxPoint x="1540" y="820" />
            </Array>
          </mxGeometry>
        </mxCell>
        <mxCell id="Cf3jVZnJyaWvzG3tm_rI-110" value="" style="endArrow=none;html=1;rounded=0;" edge="1" parent="1">
          <mxGeometry width="50" height="50" relative="1" as="geometry">
            <mxPoint x="770" y="840" as="sourcePoint" />
            <mxPoint x="1580" y="660" as="targetPoint" />
            <Array as="points">
              <mxPoint x="1580" y="840" />
            </Array>
          </mxGeometry>
        </mxCell>
        <mxCell id="Cf3jVZnJyaWvzG3tm_rI-111" value="&lt;font style=&quot;font-size: 8px;&quot;&gt;Instruction EX&lt;/font&gt;" style="text;html=1;align=center;verticalAlign=middle;resizable=0;points=[];autosize=1;strokeColor=none;fillColor=none;" vertex="1" parent="1">
          <mxGeometry x="785" y="718" width="70" height="30" as="geometry" />
        </mxCell>
        <mxCell id="Cf3jVZnJyaWvzG3tm_rI-112" value="&lt;font style=&quot;font-size: 8px;&quot;&gt;Instruction MA&lt;/font&gt;" style="text;html=1;align=center;verticalAlign=middle;resizable=0;points=[];autosize=1;strokeColor=none;fillColor=none;" vertex="1" parent="1">
          <mxGeometry x="785" y="758" width="70" height="30" as="geometry" />
        </mxCell>
        <mxCell id="Cf3jVZnJyaWvzG3tm_rI-113" value="&lt;font style=&quot;font-size: 8px;&quot;&gt;Instruction WB&lt;/font&gt;" style="text;html=1;align=center;verticalAlign=middle;resizable=0;points=[];autosize=1;strokeColor=none;fillColor=none;" vertex="1" parent="1">
          <mxGeometry x="780" y="798" width="80" height="30" as="geometry" />
        </mxCell>
        <mxCell id="Cf3jVZnJyaWvzG3tm_rI-114" value="&lt;font style=&quot;font-size: 8px;&quot;&gt;Data EX&lt;/font&gt;" style="text;html=1;align=center;verticalAlign=middle;resizable=0;points=[];autosize=1;strokeColor=none;fillColor=none;" vertex="1" parent="1">
          <mxGeometry x="795" y="738" width="50" height="30" as="geometry" />
        </mxCell>
        <mxCell id="Cf3jVZnJyaWvzG3tm_rI-115" value="&lt;font style=&quot;font-size: 8px;&quot;&gt;Data MA&lt;/font&gt;" style="text;html=1;align=center;verticalAlign=middle;resizable=0;points=[];autosize=1;strokeColor=none;fillColor=none;" vertex="1" parent="1">
          <mxGeometry x="795" y="778" width="50" height="30" as="geometry" />
        </mxCell>
        <mxCell id="Cf3jVZnJyaWvzG3tm_rI-117" value="&lt;font style=&quot;font-size: 8px;&quot;&gt;Data WB&lt;/font&gt;" style="text;html=1;align=center;verticalAlign=middle;resizable=0;points=[];autosize=1;strokeColor=none;fillColor=none;" vertex="1" parent="1">
          <mxGeometry x="790" y="818" width="60" height="30" as="geometry" />
        </mxCell>
        <mxCell id="Cf3jVZnJyaWvzG3tm_rI-118" value="" style="endArrow=none;html=1;rounded=0;" edge="1" parent="1">
          <mxGeometry width="50" height="50" relative="1" as="geometry">
            <mxPoint x="80" y="380" as="sourcePoint" />
            <mxPoint x="120" y="380" as="targetPoint" />
          </mxGeometry>
        </mxCell>
        <mxCell id="Cf3jVZnJyaWvzG3tm_rI-119" value="PC" style="text;html=1;align=center;verticalAlign=middle;resizable=0;points=[];autosize=1;strokeColor=none;fillColor=none;" vertex="1" parent="1">
          <mxGeometry x="80" y="335" width="40" height="30" as="geometry" />
        </mxCell>
        <mxCell id="Cf3jVZnJyaWvzG3tm_rI-120" value="" style="endArrow=none;html=1;rounded=0;" edge="1" parent="1">
          <mxGeometry width="50" height="50" relative="1" as="geometry">
            <mxPoint x="440" y="380" as="sourcePoint" />
            <mxPoint x="480" y="380" as="targetPoint" />
          </mxGeometry>
        </mxCell>
        <mxCell id="Cf3jVZnJyaWvzG3tm_rI-121" value="PC" style="text;html=1;align=center;verticalAlign=middle;resizable=0;points=[];autosize=1;strokeColor=none;fillColor=none;" vertex="1" parent="1">
          <mxGeometry x="440" y="335" width="40" height="30" as="geometry" />
        </mxCell>
        <mxCell id="Cf3jVZnJyaWvzG3tm_rI-122" value="" style="endArrow=none;html=1;rounded=0;" edge="1" parent="1">
          <mxGeometry width="50" height="50" relative="1" as="geometry">
            <mxPoint x="800" y="380" as="sourcePoint" />
            <mxPoint x="840" y="380" as="targetPoint" />
          </mxGeometry>
        </mxCell>
        <mxCell id="Cf3jVZnJyaWvzG3tm_rI-123" value="PC" style="text;html=1;align=center;verticalAlign=middle;resizable=0;points=[];autosize=1;strokeColor=none;fillColor=none;" vertex="1" parent="1">
          <mxGeometry x="800" y="335" width="40" height="30" as="geometry" />
        </mxCell>
        <mxCell id="Cf3jVZnJyaWvzG3tm_rI-124" value="" style="endArrow=none;html=1;rounded=0;" edge="1" parent="1">
          <mxGeometry width="50" height="50" relative="1" as="geometry">
            <mxPoint x="1160" y="380" as="sourcePoint" />
            <mxPoint x="1200" y="380" as="targetPoint" />
          </mxGeometry>
        </mxCell>
        <mxCell id="Cf3jVZnJyaWvzG3tm_rI-125" value="PC" style="text;html=1;align=center;verticalAlign=middle;resizable=0;points=[];autosize=1;strokeColor=none;fillColor=none;" vertex="1" parent="1">
          <mxGeometry x="1160" y="335" width="40" height="30" as="geometry" />
        </mxCell>
        <mxCell id="Cf3jVZnJyaWvzG3tm_rI-126" value="" style="endArrow=none;html=1;rounded=0;" edge="1" parent="1">
          <mxGeometry width="50" height="50" relative="1" as="geometry">
            <mxPoint x="1520" y="380" as="sourcePoint" />
            <mxPoint x="1560" y="380" as="targetPoint" />
          </mxGeometry>
        </mxCell>
        <mxCell id="Cf3jVZnJyaWvzG3tm_rI-127" value="PC" style="text;html=1;align=center;verticalAlign=middle;resizable=0;points=[];autosize=1;strokeColor=none;fillColor=none;" vertex="1" parent="1">
          <mxGeometry x="1520" y="335" width="40" height="30" as="geometry" />
        </mxCell>
        <mxCell id="Cf3jVZnJyaWvzG3tm_rI-128" value="IR" style="text;html=1;align=center;verticalAlign=middle;resizable=0;points=[];autosize=1;strokeColor=none;fillColor=none;" vertex="1" parent="1">
          <mxGeometry x="440" y="558" width="40" height="30" as="geometry" />
        </mxCell>
        <mxCell id="Cf3jVZnJyaWvzG3tm_rI-129" value="" style="endArrow=none;html=1;rounded=0;" edge="1" parent="1">
          <mxGeometry width="50" height="50" relative="1" as="geometry">
            <mxPoint x="440" y="540" as="sourcePoint" />
            <mxPoint x="480" y="540" as="targetPoint" />
          </mxGeometry>
        </mxCell>
        <mxCell id="Cf3jVZnJyaWvzG3tm_rI-130" value="IR" style="text;html=1;align=center;verticalAlign=middle;resizable=0;points=[];autosize=1;strokeColor=none;fillColor=none;" vertex="1" parent="1">
          <mxGeometry x="800" y="558" width="40" height="30" as="geometry" />
        </mxCell>
        <mxCell id="Cf3jVZnJyaWvzG3tm_rI-131" value="" style="endArrow=none;html=1;rounded=0;" edge="1" parent="1">
          <mxGeometry width="50" height="50" relative="1" as="geometry">
            <mxPoint x="800" y="540" as="sourcePoint" />
            <mxPoint x="840" y="540" as="targetPoint" />
          </mxGeometry>
        </mxCell>
        <mxCell id="Cf3jVZnJyaWvzG3tm_rI-132" value="IR" style="text;html=1;align=center;verticalAlign=middle;resizable=0;points=[];autosize=1;strokeColor=none;fillColor=none;" vertex="1" parent="1">
          <mxGeometry x="1160" y="558" width="40" height="30" as="geometry" />
        </mxCell>
        <mxCell id="Cf3jVZnJyaWvzG3tm_rI-133" value="" style="endArrow=none;html=1;rounded=0;" edge="1" parent="1">
          <mxGeometry width="50" height="50" relative="1" as="geometry">
            <mxPoint x="1160" y="540" as="sourcePoint" />
            <mxPoint x="1200" y="540" as="targetPoint" />
          </mxGeometry>
        </mxCell>
        <mxCell id="Cf3jVZnJyaWvzG3tm_rI-134" value="IR" style="text;html=1;align=center;verticalAlign=middle;resizable=0;points=[];autosize=1;strokeColor=none;fillColor=none;" vertex="1" parent="1">
          <mxGeometry x="1520" y="558" width="40" height="30" as="geometry" />
        </mxCell>
        <mxCell id="Cf3jVZnJyaWvzG3tm_rI-135" value="" style="endArrow=none;html=1;rounded=0;" edge="1" parent="1">
          <mxGeometry width="50" height="50" relative="1" as="geometry">
            <mxPoint x="1520" y="540" as="sourcePoint" />
            <mxPoint x="1560" y="540" as="targetPoint" />
          </mxGeometry>
        </mxCell>
        <mxCell id="Cf3jVZnJyaWvzG3tm_rI-136" value="Data&lt;br&gt;B" style="text;html=1;align=center;verticalAlign=middle;resizable=0;points=[];autosize=1;strokeColor=none;fillColor=none;" vertex="1" parent="1">
          <mxGeometry x="795" y="491" width="50" height="40" as="geometry" />
        </mxCell>
        <mxCell id="Cf3jVZnJyaWvzG3tm_rI-137" value="" style="endArrow=none;html=1;rounded=0;" edge="1" parent="1">
          <mxGeometry width="50" height="50" relative="1" as="geometry">
            <mxPoint x="800" y="480" as="sourcePoint" />
            <mxPoint x="840" y="480" as="targetPoint" />
          </mxGeometry>
        </mxCell>
        <mxCell id="Cf3jVZnJyaWvzG3tm_rI-138" value="Data&lt;br&gt;A" style="text;html=1;align=center;verticalAlign=middle;resizable=0;points=[];autosize=1;strokeColor=none;fillColor=none;" vertex="1" parent="1">
          <mxGeometry x="795" y="389" width="50" height="40" as="geometry" />
        </mxCell>
        <mxCell id="Cf3jVZnJyaWvzG3tm_rI-139" value="" style="endArrow=none;html=1;rounded=0;" edge="1" parent="1">
          <mxGeometry width="50" height="50" relative="1" as="geometry">
            <mxPoint x="800" y="440" as="sourcePoint" />
            <mxPoint x="840" y="440" as="targetPoint" />
          </mxGeometry>
        </mxCell>
        <mxCell id="Cf3jVZnJyaWvzG3tm_rI-140" value="Store&lt;br&gt;data" style="text;html=1;align=center;verticalAlign=middle;resizable=0;points=[];autosize=1;strokeColor=none;fillColor=none;" vertex="1" parent="1">
          <mxGeometry x="1155" y="491" width="50" height="40" as="geometry" />
        </mxCell>
        <mxCell id="Cf3jVZnJyaWvzG3tm_rI-141" value="ALU&lt;br&gt;data" style="text;html=1;align=center;verticalAlign=middle;resizable=0;points=[];autosize=1;strokeColor=none;fillColor=none;" vertex="1" parent="1">
          <mxGeometry x="1155" y="393" width="50" height="40" as="geometry" />
        </mxCell>
        <mxCell id="Cf3jVZnJyaWvzG3tm_rI-142" value="" style="endArrow=none;html=1;rounded=0;" edge="1" parent="1">
          <mxGeometry width="50" height="50" relative="1" as="geometry">
            <mxPoint x="1160" y="440" as="sourcePoint" />
            <mxPoint x="1200" y="440" as="targetPoint" />
          </mxGeometry>
        </mxCell>
        <mxCell id="Cf3jVZnJyaWvzG3tm_rI-143" value="" style="endArrow=none;html=1;rounded=0;" edge="1" parent="1">
          <mxGeometry width="50" height="50" relative="1" as="geometry">
            <mxPoint x="1160" y="480" as="sourcePoint" />
            <mxPoint x="1200" y="480" as="targetPoint" />
          </mxGeometry>
        </mxCell>
        <mxCell id="Cf3jVZnJyaWvzG3tm_rI-144" value="Write&lt;br&gt;data" style="text;html=1;align=center;verticalAlign=middle;resizable=0;points=[];autosize=1;strokeColor=none;fillColor=none;" vertex="1" parent="1">
          <mxGeometry x="1515" y="493" width="50" height="40" as="geometry" />
        </mxCell>
        <mxCell id="Cf3jVZnJyaWvzG3tm_rI-145" value="" style="endArrow=none;html=1;rounded=0;" edge="1" parent="1">
          <mxGeometry width="50" height="50" relative="1" as="geometry">
            <mxPoint x="1520" y="480" as="sourcePoint" />
            <mxPoint x="1560" y="480" as="targetPoint" />
          </mxGeometry>
        </mxCell>
        <mxCell id="Cf3jVZnJyaWvzG3tm_rI-146" value="" style="endArrow=none;html=1;rounded=0;" edge="1" parent="1">
          <mxGeometry width="50" height="50" relative="1" as="geometry">
            <mxPoint x="1449.8600000000001" y="490" as="sourcePoint" />
            <mxPoint x="1449.8600000000001" y="479" as="targetPoint" />
          </mxGeometry>
        </mxCell>
      </root>
    </mxGraphModel>
  </diagram>
</mxfile>
